<?xml version="1.0" encoding="UTF-8"?>
<svg xmlns="http://www.w3.org/2000/svg" width="340" height="80" viewBox="0 0 340 80" fill="none">
  <path d="M28.8 77.4C24 77.4 19.6333 76.3333 15.7 74.2C11.8333 72 8.73333 68.8333 6.4 64.7C4.13333 60.5 3 55.4 3 49.4V32.6C3 23.6 5.53333 16.7 10.6 11.9C15.6667 7.03333 22.5333 4.59999 31.2 4.59999C39.8 4.59999 46.4333 6.89999 51.1 11.5C55.8333 16.0333 58.2 22.2 58.2 30V30.4H45.2V29.6C45.2 27.1333 44.6667 24.9 43.6 22.9C42.6 20.9 41.0667 19.3333 39 18.2C36.9333 17 34.3333 16.4 31.2 16.4C26.5333 16.4 22.8667 17.8333 20.2 20.7C17.5333 23.5667 16.2 27.4667 16.2 32.4V49.6C16.2 54.4667 17.5333 58.4 20.2 61.4C22.8667 64.3333 26.6 65.8 31.4 65.8C36.2 65.8 39.7 64.5333 41.9 62C44.1 59.4667 45.2 56.2667 45.2 52.4V51.4H28.6V40.2H58.2V76H46V69.3H44.2C43.7333 70.4333 42.9667 71.6333 41.9 72.9C40.9 74.1667 39.3667 75.2333 37.3 76.1C35.2333 76.9667 32.4 77.4 28.8 77.4Z" fill="#136450"></path>
  <path d="M68.2109 76V26.4H80.6109V32H82.4109C83.1443 30 84.3443 28.5333 86.0109 27.6C87.7443 26.6667 89.7443 26.2 92.0109 26.2H98.0109V37.4H91.8109C88.6109 37.4 85.9776 38.2667 83.9109 40C81.8443 41.6667 80.8109 44.2667 80.8109 47.8V76H68.2109Z" fill="#136450"></path>
  <path d="M187.231 76V36.8H174.631V26.4H187.231V17.2C187.231 13.8 188.231 11.1 190.231 9.1C192.298 7.03333 194.965 5.99999 198.231 5.99999H211.231V16.4H202.631C200.765 16.4 199.831 17.4 199.831 19.4V26.4H209.831V36.8H199.831V76H187.231ZM219.831 76V36.8H209.831V26.4H219.831V17.2C219.831 13.8 220.831 11.1 222.831 9.1C224.898 7.03333 227.565 5.99999 230.831 5.99999H243.831V16.4H235.231C233.365 16.4 232.431 17.4 232.431 19.4V26.4H245.431V36.8H232.431V76H219.831Z" fill="#136450"></path>
  <path d="M275.241 77.4C270.307 77.4 265.941 76.3667 262.141 74.3C258.407 72.1667 255.474 69.2 253.341 65.4C251.274 61.5333 250.241 57 250.241 51.8V50.6C250.241 45.4 251.274 40.9 253.341 37.1C255.407 33.2333 258.307 30.2667 262.041 28.2C265.774 26.0667 270.107 25 275.041 25C279.907 25 284.141 26.1 287.741 28.3C291.341 30.4333 294.141 33.4333 296.141 37.3C298.141 41.1 299.141 45.5333 299.141 50.6V54.9H263.041C263.174 58.3 264.441 61.0667 266.841 63.2C269.241 65.3333 272.174 66.4 275.641 66.4C279.174 66.4 281.774 65.6333 283.441 64.1C285.107 62.5667 286.374 60.8667 287.241 59L297.541 64.4C296.607 66.1333 295.241 68.0333 293.441 70.1C291.707 72.1 289.374 73.8333 286.441 75.3C283.507 76.7 279.774 77.4 275.241 77.4ZM263.141 45.5H286.341C286.074 42.6333 284.907 40.3333 282.841 38.6C280.841 36.8667 278.207 36 274.941 36C271.541 36 268.841 36.8667 266.841 38.6C264.841 40.3333 263.607 42.6333 263.141 45.5Z" fill="#136450"></path>
  <path d="M307.355 76V26.4H319.755V32H321.555C322.289 30 323.489 28.5333 325.155 27.6C326.889 26.6667 328.889 26.2 331.155 26.2H337.155V37.4H330.955C327.755 37.4 325.122 38.2667 323.055 40C320.989 41.6667 319.955 44.2667 319.955 47.8V76H307.355Z" fill="#136450"></path>
  <path d="M164.125 27.9766C166.148 30.8672 167.546 34.3841 168.316 38.5273C169.087 42.6706 169.087 46.8138 168.316 50.957C167.738 54.2331 166.823 57.3164 165.57 60.207C164.414 63.0013 162.872 65.651 160.945 68.1562C159.115 70.6615 156.802 72.6367 154.008 74.082C151.214 75.5273 148.13 76.25 144.758 76.25C142.831 76.25 140.807 75.6719 138.688 74.5156C137.242 73.7448 135.797 73.7448 134.352 74.5156C132.232 75.6719 130.208 76.25 128.281 76.25C124.909 76.25 121.826 75.5273 119.031 74.082C116.237 72.6367 113.876 70.6615 111.949 68.1562C110.118 65.651 108.577 63.0013 107.324 60.207C106.168 57.3164 105.301 54.2331 104.723 50.957C103.952 46.8138 103.952 42.6706 104.723 38.5273C105.493 34.3841 106.891 30.8672 108.914 27.9766C111.612 24.026 115.129 21.6654 119.465 20.8945C121.103 20.7018 122.982 20.75 125.102 21.0391C127.318 21.3281 129.341 21.7617 131.172 22.3398C133.099 22.918 134.882 23.5924 136.52 24.3633C139.121 23.207 142.012 22.2435 145.191 21.4727C148.467 20.7018 151.262 20.5091 153.574 20.8945C157.91 21.6654 161.427 24.026 164.125 27.9766ZM161.523 49.8008C162.102 46.5247 162.102 43.2487 161.523 39.9727C160.945 36.6966 159.934 33.9987 158.488 31.8789C156.85 29.5664 154.779 28.2174 152.273 27.832C151.021 27.543 148.949 27.7357 146.059 28.4102C143.264 28.9883 140.085 30.2409 136.52 32.168C132.954 30.2409 129.727 28.9883 126.836 28.4102C124.042 27.7357 122.018 27.543 120.766 27.832C118.26 28.2174 116.189 29.5664 114.551 31.8789C113.105 33.9987 112.094 36.6966 111.516 39.9727C110.938 43.2487 110.938 46.5247 111.516 49.8008C111.708 50.7643 111.949 51.8724 112.238 53.125C112.527 54.2812 113.105 55.9193 113.973 58.0391C114.936 60.0625 115.996 61.8451 117.152 63.3867C118.309 64.9284 119.85 66.2773 121.777 67.4336C123.801 68.6862 125.969 69.3125 128.281 69.3125C129.052 69.3125 130.016 69.0234 131.172 68.4453C132.81 67.4818 134.592 67 136.52 67C138.447 67 140.229 67.4818 141.867 68.4453C143.023 69.0234 143.987 69.3125 144.758 69.3125C147.07 69.3125 149.19 68.6862 151.117 67.4336C153.141 66.2773 154.73 64.9284 155.887 63.3867C157.043 61.8451 158.055 60.0625 158.922 58.0391C159.885 55.9193 160.512 54.2812 160.801 53.125C161.09 51.8724 161.331 50.7643 161.523 49.8008ZM136.23 18.4375L134.352 18.293C134.255 18.1003 134.207 17.8112 134.207 17.4258C134.207 17.0404 134.207 16.3177 134.207 15.2578C134.303 14.1016 134.448 13.0417 134.641 12.0781C134.833 11.1146 135.171 10.0547 135.652 8.89844C136.23 7.64583 136.905 6.58594 137.676 5.71875C140.085 3.40625 143.65 2.25 148.371 2.25L150.25 2.39453C150.25 2.39453 150.25 2.49089 150.25 2.68359C150.346 2.77995 150.395 3.02083 150.395 3.40625C150.395 3.79167 150.395 4.22526 150.395 4.70703C150.395 5.09245 150.346 5.57422 150.25 6.15234C150.25 6.73047 150.202 7.30859 150.105 7.88672C150.009 8.46484 149.865 9.09115 149.672 9.76562C149.479 10.3438 149.238 10.9219 148.949 11.5C148.757 12.0781 148.467 12.7044 148.082 13.3789C147.793 13.957 147.408 14.487 146.926 14.9688C144.517 17.2812 140.952 18.4375 136.23 18.4375Z" fill="#136450"></path>
</svg>
